<?xml version="1.0" encoding="UTF-8" standalone="no"?>
<!DOCTYPE svg PUBLIC "-//W3C//DTD SVG 1.1//EN" "http://www.w3.org/Graphics/SVG/1.1/DTD/svg11.dtd">
<svg width="100%" height="100%" viewBox="0 0 1067 1067" version="1.1" xmlns="http://www.w3.org/2000/svg" xmlns:xlink="http://www.w3.org/1999/xlink" xml:space="preserve" xmlns:serif="http://www.serif.com/" style="fill-rule:evenodd;clip-rule:evenodd;stroke-linecap:round;stroke-linejoin:round;stroke-miterlimit:1.5;">
    <circle cx="533.333" cy="533.333" r="502.724" style="fill:#fff;stroke:#346b27;stroke-width:20.83px;"/>
    <path d="M489.804,181.942l-0.407,91.334c-80.483,-63.328 -364.767,46.026 -88.077,204.682c358.43,205.526 -167.776,306.257 -223.274,313.489l-17.389,-102.233c37.987,42.241 450.872,-34.974 151.652,-183.688c-304.245,-151.212 4.277,-359.941 177.495,-323.584Z" style="fill:#4db74f;stroke:#20f;stroke-width:2.08px;"/>
    <path d="M862.48,298.393l-0.407,91.334c-80.483,-63.328 -364.766,46.026 -88.077,204.682c358.43,205.526 -167.776,306.257 -223.274,313.489l-17.389,-102.232c37.987,42.24 450.872,-34.975 151.652,-183.689c-304.245,-151.211 4.277,-359.941 177.495,-323.584Z" style="fill:#4db74f;stroke:#20f;stroke-width:2.08px;"/>
</svg>
